<svg width="128" height="128" viewBox="0 0 128 128" fill="none" xmlns="http://www.w3.org/2000/svg" role="img" aria-label="Neural Fox">
  <defs>
    <linearGradient id="g" x1="0" y1="0" x2="1" y2="1">
      <stop offset="0%" stop-color="#5AA5FF"/>
      <stop offset="60%" stop-color="#8B7BFF"/>
      <stop offset="100%" stop-color="#25D5FF"/>
    </linearGradient>
  </defs>
  <rect width="128" height="128" rx="28" fill="#0E1423"/>
  <!-- Fox head -->
  <path d="M64 22l22 14c3 2 5 6 5 10v12c0 5-3 10-8 12l-19 9-19-9c-5-2-8-7-8-12V46c0-4 2-8 5-10L64 22z" fill="url(#g)"/>
  <!-- Ears cut -->
  <path d="M64 35l-9 8 9 5 9-5-9-8z" fill="#0E1423" opacity="0.5"/>
  <!-- Neural nodes -->
  <g stroke="#9fb4ff" stroke-opacity="0.9">
    <circle cx="44" cy="60" r="3" fill="#9fb4ff"/>
    <circle cx="84" cy="60" r="3" fill="#9fb4ff"/>
    <circle cx="64" cy="78" r="3" fill="#9fb4ff"/>
    <path d="M44 60L64 78L84 60" stroke-width="1.8"/>
  </g>
</svg>
